<?xml version="1.0" encoding="UTF-8"?>
<svg version="1.1" xmlns="http://www.w3.org/2000/svg" width="500" height="500">
<path d="M0 0 C165 0 330 0 500 0 C500 165 500 330 500 500 C335 500 170 500 0 500 C0 335 0 170 0 0 Z " fill="#FEFEFE" transform="translate(0,0)"/>
<path d="M0 0 C0.75357788 -0.00570007 1.50715576 -0.01140015 2.28356934 -0.01727295 C3.87360251 -0.0266705 5.46365471 -0.03323591 7.05371094 -0.03710938 C9.43461104 -0.04673695 11.81461714 -0.07777722 14.1953125 -0.109375 C27.07355169 -0.19941622 39.23899017 1.39262622 51.40625 5.890625 C52.45365356 6.27081787 52.45365356 6.27081787 53.5222168 6.65869141 C88.82137143 19.8805071 116.16778265 45.95021467 131.7890625 80.08984375 C137.69600312 94.05575111 141.07658461 108.9283509 141.171875 124.11328125 C141.17757507 124.84324814 141.18327515 125.57321503 141.18914795 126.32530212 C141.1985292 127.86228011 141.20510428 129.39927758 141.20898438 130.9362793 C141.21862534 133.23589163 141.24968718 135.53458328 141.28125 137.83398438 C141.37704175 150.99106467 139.56391987 163.28550999 134.78125 175.640625 C134.47936768 176.43428467 134.17748535 177.22794434 133.86645508 178.0456543 C126.85928839 196.04586384 117.3483248 211.22837339 103.96875 225.203125 C102.94394531 226.32267578 102.94394531 226.32267578 101.8984375 227.46484375 C84.27036456 246.10116441 58.90522055 258.22225782 33.96875 263.203125 C33.18685303 263.37013916 32.40495605 263.53715332 31.59936523 263.70922852 C-2.04120064 270.47346579 -36.85748707 261.34553794 -65.30859375 243.1015625 C-73.57710456 237.27997425 -80.93231957 230.37957885 -88.03125 223.203125 C-88.79824219 222.43355469 -89.56523437 221.66398438 -90.35546875 220.87109375 C-106.77789996 203.63432711 -117.22033338 181.36699516 -122.03125 158.203125 C-122.27617188 157.04941406 -122.52109375 155.89570313 -122.7734375 154.70703125 C-128.71921937 120.78349498 -120.33007525 86.62080973 -101.9296875 57.92578125 C-97.46239873 51.58080736 -92.35777388 45.83427034 -87.03125 40.203125 C-86.22171875 39.31753906 -85.4121875 38.43195313 -84.578125 37.51953125 C-63.28030585 15.04204247 -31.06026478 0.1874311 0 0 Z " fill="#FDFCFB" transform="translate(241.03125,117.796875)"/>
<path d="M0 0 C0.66 0 1.32 0 2 0 C2 1.65 2 3.3 2 5 C2.598125 5.25394531 3.19625 5.50789062 3.8125 5.76953125 C6.2567013 7.14439448 7.36564047 8.42693206 9 10.6875 C9.78890625 11.75677734 9.78890625 11.75677734 10.59375 12.84765625 C12 15 12 15 13.5 18.625 C15.83640045 22.98233755 20.18238169 24.02298445 24.57861328 25.73754883 C37.22439305 30.73899253 46.03292255 40.832667 51.765625 52.9453125 C53.29452508 56.72885638 54.26503789 60.53593954 55.234375 64.4921875 C56.20583384 67.67421083 57.75634813 70.04416337 59.59375 72.7890625 C65.25931359 81.69658748 68.0293673 89.42039165 67 100 C64.45684751 97.45684751 64.78154231 96.45666209 64.6875 92.9375 C64.32600433 87.65410174 62.88626415 84.2070937 60.05859375 79.77734375 C59 78 59 78 59 76 C58.34 76 57.68 76 57 76 C57.06052264 78.20907618 57.14944605 80.41738376 57.25 82.625 C57.29640625 83.85476563 57.3428125 85.08453125 57.390625 86.3515625 C58.08716878 90.52189513 59.65116836 92.53480351 62 96 C62.68769626 98.67926462 63.21984626 101.16069488 63.625 103.875 C64.53648386 109.32518689 65.55488775 114.66420094 67 120 C66.34 120 65.68 120 65 120 C64.67 120.66 64.34 121.32 64 122 C63.69707031 120.85402344 63.39414062 119.70804687 63.08203125 118.52734375 C62.65959637 116.99719074 62.23637727 115.46725408 61.8125 113.9375 C61.61591797 113.18533203 61.41933594 112.43316406 61.21679688 111.65820312 C59.68528878 106.21545896 57.50737511 102.43874531 54 98 C48.37747921 111.27522223 48.37747921 111.27522223 44 125 C49.94 125 55.88 125 62 125 C62 125.33 62 125.66 62 126 C53.75 126 45.5 126 37 126 C37.33 124.35 37.66 122.7 38 121 C36.85139564 116.30260422 34.87856334 112.18749453 30.8125 109.4375 C28.3780225 107.92414816 28.3780225 107.92414816 27 108 C26.98582031 108.72445312 26.97164063 109.44890625 26.95703125 110.1953125 C26.62673979 116.89040962 25.90250719 120.34890343 21 125 C24.63 125 28.26 125 32 125 C32 125.33 32 125.66 32 126 C-1.99 126 -35.98 126 -71 126 C-71 125.67 -71 125.34 -71 125 C-58.46 124.67 -45.92 124.34 -33 124 C-33 120.7 -33 117.4 -33 114 C-33 112.68 -33 111.36 -33 110 C-33.99 109.505 -33.99 109.505 -35 109 C-35.37125 110.11375 -35.37125 110.11375 -35.75 111.25 C-37.50813218 115.1178908 -39.5812778 117.23312314 -43.3125 119.25 C-46.61694262 120.17217003 -49.58621148 120.13387406 -53 120 C-53.20625 119.443125 -53.4125 118.88625 -53.625 118.3125 C-55.51040088 115.14159851 -58.15359359 113.31270521 -61 111 C-63 108 -63 108 -62.625 105.8125 C-62.41875 105.214375 -62.2125 104.61625 -62 104 C-61.21625 104.825 -60.4325 105.65 -59.625 106.5 C-57.36278736 109.22988506 -57.36278736 109.22988506 -55 109 C-55.495 106.03 -55.495 106.03 -56 103 C-55.236875 103.33 -54.47375 103.66 -53.6875 104 C-51.00930865 105.17436686 -51.00930865 105.17436686 -48 105 C-48 101.7 -48 98.4 -48 95 C-46.68 95 -45.36 95 -44 95 C-44.2165625 94.46117187 -44.433125 93.92234375 -44.65625 93.3671875 C-46.95873664 86.56632417 -47.33200809 80.05146646 -47.375 72.9375 C-47.38853516 72.01630371 -47.40207031 71.09510742 -47.41601562 70.14599609 C-47.37443298 63.65563879 -46.17756122 58.1052732 -44 52 C-45.65 51.67 -47.3 51.34 -49 51 C-49 50.67 -49 50.34 -49 50 C-47.88625 49.9175 -46.7725 49.835 -45.625 49.75 C-41.94246056 49.42126213 -41.94246056 49.42126213 -40.5625 46.9375 C-40.376875 46.298125 -40.19125 45.65875 -40 45 C-41.65 44.67 -43.3 44.34 -45 44 C-45 43.34 -45 42.68 -45 42 C-43.4221875 42.185625 -43.4221875 42.185625 -41.8125 42.375 C-38.14436311 42.37879806 -38.14436311 42.37879806 -36.421875 40.6640625 C-35.20199133 39.17075662 -34.092399 37.588944 -33 36 C-34.88807863 33.30274481 -36.19824644 31.86783571 -39 30 C-37.68 30 -36.36 30 -35 30 C-37.25740623 27.66475218 -39.2805761 25.81294927 -42 24 C-40.68 24 -39.36 24 -38 24 C-36.68 23.67 -35.36 23.34 -34 23 C-33.505 27.95 -33.505 27.95 -33 33 C-28.79741421 32.44066304 -26.21468441 31.02596551 -22.75 28.625 C-13.63356199 22.69323767 -5.81188188 21.48461294 5 21 C4.01 19.35 3.02 17.7 2 16 C0.37419034 16.11398665 -1.25067157 16.24155659 -2.875 16.375 C-4.23238281 16.47941406 -4.23238281 16.47941406 -5.6171875 16.5859375 C-8.17941903 16.79568132 -8.17941903 16.79568132 -10 19 C-10.99 19 -11.98 19 -13 19 C-12.45819263 14.87054925 -11.20641582 12.49583086 -8.625 9.25 C-7.71621094 8.08210937 -7.71621094 8.08210937 -6.7890625 6.890625 C-5 5 -5 5 -2 4 C-0.79117904 1.99983534 -0.79117904 1.99983534 0 0 Z " fill="#56351F" transform="translate(246,177)"/>
<path d="M0 0 C0.75357788 -0.00570007 1.50715576 -0.01140015 2.28356934 -0.01727295 C3.87360251 -0.0266705 5.46365471 -0.03323591 7.05371094 -0.03710938 C9.43461104 -0.04673695 11.81461714 -0.07777722 14.1953125 -0.109375 C27.07355169 -0.19941622 39.23899017 1.39262622 51.40625 5.890625 C52.45365356 6.27081787 52.45365356 6.27081787 53.5222168 6.65869141 C88.82137143 19.8805071 116.16778265 45.95021467 131.7890625 80.08984375 C137.69600312 94.05575111 141.07658461 108.9283509 141.171875 124.11328125 C141.17757507 124.84324814 141.18327515 125.57321503 141.18914795 126.32530212 C141.1985292 127.86228011 141.20510428 129.39927758 141.20898438 130.9362793 C141.21862534 133.23589163 141.24968718 135.53458328 141.28125 137.83398438 C141.37704175 150.99106467 139.56391987 163.28550999 134.78125 175.640625 C134.47936768 176.43428467 134.17748535 177.22794434 133.86645508 178.0456543 C126.85928839 196.04586384 117.3483248 211.22837339 103.96875 225.203125 C102.94394531 226.32267578 102.94394531 226.32267578 101.8984375 227.46484375 C84.27036456 246.10116441 58.90522055 258.22225782 33.96875 263.203125 C33.18685303 263.37013916 32.40495605 263.53715332 31.59936523 263.70922852 C-2.04120064 270.47346579 -36.85748707 261.34553794 -65.30859375 243.1015625 C-73.57710456 237.27997425 -80.93231957 230.37957885 -88.03125 223.203125 C-88.79824219 222.43355469 -89.56523437 221.66398438 -90.35546875 220.87109375 C-106.77789996 203.63432711 -117.22033338 181.36699516 -122.03125 158.203125 C-122.27617188 157.04941406 -122.52109375 155.89570313 -122.7734375 154.70703125 C-128.71921937 120.78349498 -120.33007525 86.62080973 -101.9296875 57.92578125 C-97.46239873 51.58080736 -92.35777388 45.83427034 -87.03125 40.203125 C-86.22171875 39.31753906 -85.4121875 38.43195313 -84.578125 37.51953125 C-63.28030585 15.04204247 -31.06026478 0.1874311 0 0 Z M-91.03125 51.203125 C-94.46216872 55.26277076 -97.35098449 59.61971238 -100.03125 64.203125 C-100.44068848 64.89744629 -100.85012695 65.59176758 -101.27197266 66.30712891 C-118.58328995 96.16156987 -123.77185626 131.3715977 -115.28125 165.015625 C-105.6315501 197.74684152 -85.20509285 226.60369859 -55.03027344 243.31103516 C-46.3528696 247.99067963 -37.41833563 252.16071317 -28.03125 255.203125 C-26.27748047 255.79287109 -26.27748047 255.79287109 -24.48828125 256.39453125 C-13.79174743 259.55438288 -2.96605633 259.60258867 8.09375 259.640625 C8.85575714 259.6467984 9.61776428 259.6529718 10.40286255 259.65933228 C24.62082723 259.73326577 38.25785245 258.19196024 51.59375 252.953125 C52.3880542 252.64866455 53.1823584 252.3442041 54.00073242 252.03051758 C71.24098652 245.28750065 85.59819564 235.96812889 98.96875 223.203125 C99.5565625 222.67847656 100.144375 222.15382813 100.75 221.61328125 C120.83289167 202.99871421 135.02405788 171.83312964 136.11401367 144.56958008 C136.13434578 141.12470824 136.1544336 137.68003915 136.15405273 134.23510742 C136.15622716 132.0386989 136.17438948 129.84280357 136.19335938 127.64648438 C136.32745913 94.9773833 122.2777131 65.05144235 99.84375 41.640625 C75.23364257 17.92668395 43.97313601 4.47171461 9.78125 4.765625 C8.63379807 4.77068558 8.63379807 4.77068558 7.46316528 4.77584839 C-32.13506438 5.02818474 -64.75135589 21.93453705 -91.03125 51.203125 Z " fill="#F79539" transform="translate(241.03125,117.796875)"/>
<path d="M0 0 C2.06227622 3.86249524 3.46767443 7.34760804 4.375 11.625 C6.19514565 19.32709 9.08698529 26.49280636 12.875 33.4375 C14.20378443 36.46417564 14.05981461 37.90887406 13 41 C12.67 41.33 12.34 41.66 12 42 C11.69132719 45.47256915 11.61298661 47.3872288 13.5 50.375 C13.995 50.91125 14.49 51.4475 15 52 C15.66 51.67 16.32 51.34 17 51 C16.67 53.31 16.34 55.62 16 58 C19.71599191 58.20086443 20.77208445 58.1519437 24 56 C24 56.99 24 57.98 24 59 C24.99 58.01 24.99 58.01 26 57 C26.33 57.33 26.66 57.66 27 58 C29.01964199 58.07244053 31.04167124 58.08377188 33.0625 58.0625 C34.16722656 58.05347656 35.27195312 58.04445313 36.41015625 58.03515625 C37.69212891 58.01775391 37.69212891 58.01775391 39 58 C41.55691336 71.53794304 42.95497756 84.21274907 37 97 C36.67 97 36.34 97 36 97 C35.51171875 94.98177083 35.0234375 92.96354167 34.53515625 90.9453125 C34.05153008 88.9414343 34.05153008 88.9414343 33 87 C32.80870841 85.16401663 32.62064421 83.32758315 32.45605469 81.48901367 C31.5408396 71.78765033 31.5408396 71.78765033 26 64 C21.51287302 61.29173405 18.30848218 60.65184593 13.09765625 60.77734375 C11.79505859 60.79603516 10.49246094 60.81472656 9.15039062 60.83398438 C7.78772731 60.8671563 6.42509607 60.90167207 5.0625 60.9375 C2.3865862 61.00102223 -0.28835213 61.04882979 -2.96484375 61.08984375 C-4.1468335 61.11941162 -5.32882324 61.14897949 -6.54663086 61.17944336 C-10.29705677 60.98456439 -13.43230152 60.14024531 -17 59 C-23.77401746 57.5342157 -28.40830305 58.89691998 -34.18774414 62.43457031 C-36.88409883 64.18318871 -39.53532522 65.99247315 -42.18212891 67.81494141 C-44.67945625 69.44293321 -47.30163788 70.74076434 -50 72 C-52.54327188 64.87806629 -53.47007122 58.54231681 -53.375 51 C-53.38660156 50.07960937 -53.39820313 49.15921875 -53.41015625 48.2109375 C-53.38262622 41.69549694 -52.18804522 36.12719117 -50 30 C-51.65 29.67 -53.3 29.34 -55 29 C-55 28.67 -55 28.34 -55 28 C-53.329375 27.87625 -53.329375 27.87625 -51.625 27.75 C-47.94246056 27.42126213 -47.94246056 27.42126213 -46.5625 24.9375 C-46.376875 24.298125 -46.19125 23.65875 -46 23 C-47.65 22.67 -49.3 22.34 -51 22 C-51 21.34 -51 20.68 -51 20 C-49.948125 20.12375 -48.89625 20.2475 -47.8125 20.375 C-44.14436311 20.37879806 -44.14436311 20.37879806 -42.421875 18.6640625 C-41.20199133 17.17075662 -40.092399 15.588944 -39 14 C-40.88807863 11.30274481 -42.19824644 9.86783571 -45 8 C-43.68 8 -42.36 8 -41 8 C-43.25740623 5.66475218 -45.2805761 3.81294927 -48 2 C-46.68 2 -45.36 2 -44 2 C-42.68 1.67 -41.36 1.34 -40 1 C-39.67 4.3 -39.34 7.6 -39 11 C-34.79741421 10.44066304 -32.21468441 9.02596551 -28.75 6.625 C-19.02634704 0.31951532 -11.57171755 -0.44443296 0 0 Z " fill="#F38D2E" transform="translate(252,199)"/>
<path d="M0 0 C0.66 0 1.32 0 2 0 C2 1.65 2 3.3 2 5 C2.8971875 5.38091797 2.8971875 5.38091797 3.8125 5.76953125 C6.2567013 7.14439448 7.36564047 8.42693206 9 10.6875 C9.5259375 11.40035156 10.051875 12.11320313 10.59375 12.84765625 C12 15 12 15 13.5 18.625 C15.83640045 22.98233755 20.18238169 24.02298445 24.57861328 25.73754883 C37.22439305 30.73899253 46.03292255 40.832667 51.765625 52.9453125 C53.29452508 56.72885638 54.26503789 60.53593954 55.234375 64.4921875 C56.20583384 67.67421083 57.75634813 70.04416337 59.59375 72.7890625 C65.25931359 81.69658748 68.0293673 89.42039165 67 100 C64.45684751 97.45684751 64.78154231 96.45666209 64.6875 92.9375 C64.32600433 87.65410174 62.88626415 84.2070937 60.05859375 79.77734375 C59 78 59 78 59 76 C58.34 76 57.68 76 57 76 C57.06052264 78.20907618 57.14944605 80.41738376 57.25 82.625 C57.29640625 83.85476563 57.3428125 85.08453125 57.390625 86.3515625 C58.08716878 90.52189513 59.65116836 92.53480351 62 96 C62.68769626 98.67926462 63.21984626 101.16069488 63.625 103.875 C64.53648386 109.32518689 65.55488775 114.66420094 67 120 C66.34 120 65.68 120 65 120 C64.67 120.66 64.34 121.32 64 122 C63.54560547 120.28103516 63.54560547 120.28103516 63.08203125 118.52734375 C62.65959637 116.99719074 62.23637727 115.46725408 61.8125 113.9375 C61.61591797 113.18533203 61.41933594 112.43316406 61.21679688 111.65820312 C59.68528878 106.21545896 57.50737511 102.43874531 54 98 C53.51789063 99.19238281 53.03578125 100.38476562 52.5390625 101.61328125 C51.90121555 103.17975831 51.26318514 104.74616068 50.625 106.3125 C50.30789063 107.09818359 49.99078125 107.88386719 49.6640625 108.69335938 C49.3546875 109.45068359 49.0453125 110.20800781 48.7265625 110.98828125 C48.44377441 111.68477783 48.16098633 112.38127441 47.86962891 113.09887695 C47 115 47 115 45 118 C44.34 118 43.68 118 43 118 C43.2165625 117.45214844 43.433125 116.90429688 43.65625 116.33984375 C46.8863142 107.14313318 47.00019027 97.50490415 45 88 C44.88321201 85.32321927 44.9545494 82.68158543 45 80 C44.01 80.495 44.01 80.495 43 81 C41.33468739 81.0703257 39.66665427 81.08430216 38 81.0625 C37.113125 81.05347656 36.22625 81.04445313 35.3125 81.03515625 C34.549375 81.02355469 33.78625 81.01195312 33 81 C32.34 81 31.68 81 31 81 C30.34 81.66 29.68 82.32 29 83 C29 82.01 29 81.02 29 80 C28.01 80.495 28.01 80.495 27 81 C25.33380554 81.0396713 23.66608987 81.04384447 22 81 C21.4465236 78.92446352 21 77.15634036 21 75 C20.02149805 73.97895449 19.02019573 72.9793879 18 72 C16.61449803 69.22899606 16.8122533 67.0665294 17 64 C17.66 63.01 18.32 62.02 19 61 C18.64573256 56.77771053 16.87261428 53.28840543 15.0625 49.5 C12.23664514 43.55667872 9.96114416 38.2197998 8.6875 31.75 C7.37664239 25.81059879 5.31745579 21.07452724 2 16 C0.37419034 16.11398665 -1.25067157 16.24155659 -2.875 16.375 C-4.23238281 16.47941406 -4.23238281 16.47941406 -5.6171875 16.5859375 C-8.17941903 16.79568132 -8.17941903 16.79568132 -10 19 C-10.99 19 -11.98 19 -13 19 C-12.45819263 14.87054925 -11.20641582 12.49583086 -8.625 9.25 C-8.01914063 8.47140625 -7.41328125 7.6928125 -6.7890625 6.890625 C-5 5 -5 5 -2 4 C-0.79117904 1.99983534 -0.79117904 1.99983534 0 0 Z " fill="#573621" transform="translate(246,177)"/>
<path d="M0 0 C0.93585938 0.07863281 1.87171875 0.15726563 2.8359375 0.23828125 C6.84662715 0.88426067 9.73142863 1.79392863 12.625 4.6875 C14.18287793 11.65414532 14.68137461 19.62467859 13.625 26.6875 C11.02161262 30.70175538 7.97081628 31.92944615 3.625 33.6875 C1.73447258 34.80752906 -0.14155579 35.95250516 -2 37.125 C-3.45609535 37.98297618 -4.91357678 38.83863077 -6.375 39.6875 C-10.15558143 32.6664202 -10.68767558 26.58967097 -10.625 18.75 C-10.63273438 17.78642578 -10.64046875 16.82285156 -10.6484375 15.83007812 C-10.63369899 10.43946648 -10.42563847 5.71156425 -8.375 0.6875 C-5.16543359 -0.38235547 -3.33416167 -0.3060121 0 0 Z " fill="#F38D2E" transform="translate(209.375,231.3125)"/>
<path d="M0 0 C6.27691196 7.39778909 9.16714432 14.82335581 12 24 C12.66 24 13.32 24 14 24 C14 25.65 14 27.3 14 29 C16.64 29 19.28 29 22 29 C20 31 20 31 17.58308983 31.24609566 C16.55989962 31.24425207 15.5367094 31.24240849 14.48251343 31.24050903 C13.31019669 31.24325836 12.13787994 31.24600769 10.93003845 31.24884033 C9.63747635 31.24164978 8.34491425 31.23445923 7.01318359 31.22705078 C5.64344796 31.22648686 4.27371172 31.22680285 2.90397644 31.22793579 C-0.82104558 31.22851107 -4.54593954 31.21672862 -8.27093172 31.20278788 C-12.161358 31.19030954 -16.05178702 31.18911231 -19.94223022 31.18673706 C-27.31225482 31.18051375 -34.68222028 31.16409146 -42.05221879 31.14403808 C-50.44145638 31.12170551 -58.83069674 31.11069231 -67.21995664 31.10064721 C-84.48000533 31.07972594 -101.73999642 31.04453349 -119 31 C-119 30.67 -119 30.34 -119 30 C-75.935 29.505 -75.935 29.505 -32 29 C-31.34 27.68 -30.68 26.36 -30 25 C-29.34 24.34 -28.68 23.68 -28 23 C-27.53513282 19.87803664 -27.53513282 19.87803664 -27.375 16.375 C-27.30023438 15.18648438 -27.22546875 13.99796875 -27.1484375 12.7734375 C-27.07496094 11.40058594 -27.07496094 11.40058594 -27 10 C-20.84164183 13.35551567 -17.15271735 16.29466286 -14.4609375 22.8515625 C-13.94374965 25.26218383 -14.21524021 26.6875745 -15 29 C-13.02 29 -11.04 29 -9 29 C-8.87044922 28.12601562 -8.87044922 28.12601562 -8.73828125 27.234375 C-7.66808582 20.98993193 -5.71065376 15.58021877 -3.17578125 9.78515625 C-1.81308722 6.55724647 -0.84844412 3.39377648 0 0 Z " fill="#7F6656" transform="translate(299,273)"/>
<path d="M0 0 C4.71362305 1.9901964 7.72172827 5.44345654 10 10 C10.63609303 13.95343894 10.83174081 17.51514728 8.8359375 21.078125 C5.12063153 25.61270357 1.92255407 27.62690799 -3.9375 28.375 C-8.65286742 27.79760807 -11.50067225 25.84956442 -14.48828125 22.1640625 C-16.60189309 19.05616003 -17.8926016 16.59665779 -18.5625 12.875 C-17.62559181 8.08635812 -15.05656578 5.14712856 -11.8125 1.625 C-7.84017594 -0.67012057 -4.48488713 -0.66987385 0 0 Z " fill="#5B3B27" transform="translate(336,181)"/>
<path d="M0 0 C3.67465444 1.30232006 6.33822178 3.25283104 8.9375 6.1875 C10.81063322 11.14579382 10.88023783 15.91522619 8.8125 20.8125 C3.95370729 26.67656016 3.95370729 26.67656016 -0.3359375 27.38671875 C-6.0314202 27.63472025 -9.63093234 26.94281716 -14 23 C-17.36609381 19.18509368 -17.56483276 15.35212005 -17.42578125 10.44140625 C-16.72489984 6.42259083 -14.96118104 4.75458701 -12 2 C-7.93758233 -0.70827845 -4.76961455 -0.64175877 0 0 Z " fill="#5A3A26" transform="translate(312,156)"/>
<path d="M0 0 C1.2065625 0.2475 1.2065625 0.2475 2.4375 0.5 C4.97658116 1.26597109 4.97658116 1.26597109 7 0 C7.33 3.3 7.66 6.6 8 10 C8.99 10.33 9.98 10.66 11 11 C12.38671875 13.28515625 12.38671875 13.28515625 13.6875 16.0625 C14.34298828 17.44115234 14.34298828 17.44115234 15.01171875 18.84765625 C15.50091797 19.91306641 15.50091797 19.91306641 16 21 C16.66 18.03 17.32 15.06 18 12 C18.33 12.99 18.66 13.98 19 15 C19.66 14.67 20.32 14.34 21 14 C21.65555119 11.47266765 21.65555119 11.47266765 22 9 C22.33 9.66 22.66 10.32 23 11 C23.66 11.33 24.32 11.66 25 12 C24.566875 12.36609375 24.13375 12.7321875 23.6875 13.109375 C20.7145316 15.99976095 19.13573231 17.9314407 18.6015625 22.13671875 C18.62268414 25.11134924 18.73730851 28.03742374 19 31 C21.07626313 26.37559575 22.70022952 21.8991349 24 17 C24.66 17.33 25.32 17.66 26 18 C26.33 17.34 26.66 16.68 27 16 C27.66 16.33 28.32 16.66 29 17 C27.34761732 21.17029915 26.15919254 23.84080746 23 27 C23 28.32 23 29.64 23 31 C22.67902344 32.05574219 22.35804688 33.11148438 22.02734375 34.19921875 C20.67551016 39.20048904 20.61296961 43.96937856 20.52148438 49.12304688 C20.4502368 51.08843737 20.23497666 53.04740635 20 55 C19.01 55.66 18.02 56.32 17 57 C16.98018066 56.37432129 16.96036133 55.74864258 16.93994141 55.10400391 C16.84485774 52.27723481 16.73511254 49.45122185 16.625 46.625 C16.57859375 45.14773437 16.57859375 45.14773437 16.53125 43.640625 C16.49257812 42.69960937 16.45390625 41.75859375 16.4140625 40.7890625 C16.36693115 39.48509521 16.36693115 39.48509521 16.31884766 38.15478516 C16.18770567 35.79038206 16.18770567 35.79038206 14 34 C8.38584055 32.11308334 2.87241294 31.78645771 -3 32 C-3 31.01 -3 30.02 -3 29 C-4.65 28.67 -6.3 28.34 -8 28 C-8 27.67 -8 27.34 -8 27 C-6.329375 26.87625 -6.329375 26.87625 -4.625 26.75 C-0.94246056 26.42126213 -0.94246056 26.42126213 0.4375 23.9375 C0.623125 23.298125 0.80875 22.65875 1 22 C-0.65 21.67 -2.3 21.34 -4 21 C-4 20.34 -4 19.68 -4 19 C-2.948125 19.12375 -1.89625 19.2475 -0.8125 19.375 C2.85563689 19.37879806 2.85563689 19.37879806 4.578125 17.6640625 C5.79800867 16.17075662 6.907601 14.588944 8 13 C6.11192137 10.30274481 4.80175356 8.86783571 2 7 C3.32 7 4.64 7 6 7 C3.74259377 4.66475218 1.7194239 2.81294927 -1 1 C-0.67 0.67 -0.34 0.34 0 0 Z " fill="#613D23" transform="translate(205,200)"/>
<path d="M0 0 C12.73635562 2.90090529 23.57615459 10.01155967 30.94140625 20.859375 C39.71943377 35.30005492 39.71943377 35.30005492 38.5625 41.25 C38.2840625 42.11625 38.2840625 42.11625 38 43 C37.01 42.1646875 37.01 42.1646875 36 41.3125 C33.28671667 39.08199161 33.28671667 39.08199161 31.16796875 38.04296875 C25.13689938 34.86684346 22.43092769 30.48948431 18.86328125 24.78125 C16.65993168 21.49239277 14.05826356 19.49654168 11 17 C2.19783448 6.35969125 2.19783448 6.35969125 0 0 Z " fill="#F48F30" transform="translate(262,200)"/>
<path d="M0 0 C2.50389959 1.43549605 3.96229395 2.86289366 6 5 C6 5.99 6 6.98 6 8 C9.3 8 12.6 8 16 8 C15.34 9.98 14.68 11.96 14 14 C10.7 14 7.4 14 4 14 C4.18828772 16.44480079 4.18828772 16.44480079 5 19 C6.96758273 20.36020151 6.96758273 20.36020151 9 21 C8.67 22.98 8.34 24.96 8 27 C2.85712716 25.41694664 -1.94307554 23.32493506 -6.8125 21.0625 C-7.58787109 20.71509766 -8.36324219 20.36769531 -9.16210938 20.00976562 C-9.89880859 19.66751953 -10.63550781 19.32527344 -11.39453125 18.97265625 C-12.06331299 18.66593994 -12.73209473 18.35922363 -13.42114258 18.04321289 C-15 17 -15 17 -16 14 C-13.02605619 5.86578839 -9.661556 -1.49920697 0 0 Z " fill="#5B3B27" transform="translate(161,195)"/>
<path d="M0 0 C0.66 0.99 1.32 1.98 2 3 C-0.92461261 6.46063486 -3.62703934 6.69490275 -7.94140625 7.375 C-10.37611315 7.87623292 -10.37611315 7.87623292 -12 11 C-11.8684799 14.68256285 -11.73329557 17.09748237 -9.375 20 C-5.92336696 21.45331917 -3.57190516 20.92604949 0 20 C2.36980013 17.04622502 2.36980013 17.04622502 2 13 C1.13375 13.7734375 1.13375 13.7734375 0.25 14.5625 C-2 16 -2 16 -4.25 15.6875 C-4.8275 15.460625 -5.405 15.23375 -6 15 C-5.4574885 11.28339139 -4.15932619 9.90947765 -1.1875 7.6875 C-0.50042969 7.15511719 0.18664062 6.62273437 0.89453125 6.07421875 C3 5 3 5 5.18359375 5.234375 C7 6 7 6 8.25 7.5625 C9.57700516 11.87526677 9.96946788 15.81869727 8.125 19.96875 C5.24269467 24.44390828 2.22086617 26.55976106 -3 28 C-8.59056583 28.09983153 -11.62196745 26.32239147 -15.55078125 22.60546875 C-18.55512979 19.27720123 -19.03650767 17.0039608 -18.875 12.5625 C-17.59292039 7.34260444 -15.71805769 4.17140297 -11.25 1.125 C-7.11469083 -0.30645317 -4.35984371 -0.43598437 0 0 Z " fill="#5C3D29" transform="translate(195,157)"/>
<path d="M0 0 C2.06222594 4.12445188 0.670618 9.56582757 0 14 C-2.05714286 19.05714286 -2.05714286 19.05714286 -4 21 C-5.92667507 21.08748207 -7.85651861 21.10697334 -9.78515625 21.09765625 C-10.95498047 21.09443359 -12.12480469 21.09121094 -13.33007812 21.08789062 C-14.56177734 21.07951172 -15.79347656 21.07113281 -17.0625 21.0625 C-18.91584961 21.05573242 -18.91584961 21.05573242 -20.80664062 21.04882812 C-23.87114117 21.03699608 -26.93554721 21.02051173 -30 21 C-30.92867074 18.21398777 -31.16342217 16.38933911 -31.1875 13.5 C-31.20167969 12.7265625 -31.21585938 11.953125 -31.23046875 11.15625 C-31 9 -31 9 -29 6 C-28.45730469 6.15984375 -27.91460937 6.3196875 -27.35546875 6.484375 C-19.18882512 8.27209798 -11.64181163 7.05672465 -4 4 C-3.67 6.97 -3.34 9.94 -3 13 C-2.34 13 -1.68 13 -1 13 C-1.09539062 12.22914063 -1.19078125 11.45828125 -1.2890625 10.6640625 C-1.39992188 9.66117187 -1.51078125 8.65828125 -1.625 7.625 C-1.79902344 6.12839844 -1.79902344 6.12839844 -1.9765625 4.6015625 C-1.98429687 3.74304688 -1.99203125 2.88453125 -2 2 C-1.34 1.34 -0.68 0.68 0 0 Z " fill="#EB8D36" transform="translate(265,281)"/>
<path d="M0 0 C0 0.99 0 1.98 0 3 C0.99 2.34 1.98 1.68 3 1 C3.33 1.33 3.66 1.66 4 2 C6.01964199 2.07244053 8.04167124 2.08377188 10.0625 2.0625 C11.16722656 2.05347656 12.27195312 2.04445313 13.41015625 2.03515625 C14.69212891 2.01775391 14.69212891 2.01775391 16 2 C18.55691336 15.53794304 19.95497756 28.21274907 14 41 C13.67 41 13.34 41 13 41 C12.51171875 38.98177083 12.0234375 36.96354167 11.53515625 34.9453125 C11.05153008 32.9414343 11.05153008 32.9414343 10 31 C9.80870841 29.16401663 9.62064421 27.32758315 9.45605469 25.48901367 C8.5408396 15.78765033 8.5408396 15.78765033 3 8 C-1.84612428 5.02656681 -5.84747535 4.48742167 -11.375 4.3125 C-12.11105469 4.27833984 -12.84710938 4.24417969 -13.60546875 4.20898438 C-15.40313853 4.12727211 -17.20154046 4.06194219 -19 4 C-19 3.67 -19 3.34 -19 3 C-15.7 3 -12.4 3 -9 3 C-8.67 2.34 -8.34 1.68 -8 1 C-7.67 1.33 -7.34 1.66 -7 2 C-4.54190002 2.2500773 -4.54190002 2.2500773 -2 2 C-1.34 1.34 -0.68 0.68 0 0 Z " fill="#E9872D" transform="translate(275,255)"/>
<path d="M0 0 C6.02204849 7.0974143 10.57729458 15.08212407 11.25 24.5 C11 27 11 27 10 28 C8.65732587 28.08631874 7.31025678 28.10706473 5.96484375 28.09765625 C5.15595703 28.09443359 4.34707031 28.09121094 3.51367188 28.08789062 C2.66353516 28.07951172 1.81339844 28.07113281 0.9375 28.0625 C0.08349609 28.05798828 -0.77050781 28.05347656 -1.65039062 28.04882812 C-3.76695663 28.03700373 -5.88348685 28.01906769 -8 28 C-7.65944236 21.18884719 -5.96452478 16.04373809 -3.2109375 9.8203125 C-1.81954836 6.57972231 -0.85375474 3.41501897 0 0 Z " fill="#F9F8F7" transform="translate(299,273)"/>
<path d="M0 0 C0.33 1.65 0.66 3.3 1 5 C-3.95 6.485 -3.95 6.485 -9 8 C-8.67 9.65 -8.34 11.3 -8 13 C-3.05 11.515 -3.05 11.515 2 10 C2.66 11.65 3.32 13.3 4 15 C-0.95 16.485 -0.95 16.485 -6 18 C-5.34 19.32 -4.68 20.64 -4 22 C-0.31733897 21.40049704 3.34543185 20.75241109 7 20 C7.33 21.65 7.66 23.3 8 25 C5.70967689 25.83719383 3.41789043 26.6698929 1.125 27.5 C0.47402344 27.73847656 -0.17695313 27.97695312 -0.84765625 28.22265625 C-5.7734375 30 -5.7734375 30 -8 30 C-9.34425253 26.58752916 -10.67347169 23.16939561 -12 19.75 C-12.3815625 18.78191406 -12.763125 17.81382812 -13.15625 16.81640625 C-13.5171875 15.88183594 -13.878125 14.94726562 -14.25 13.984375 C-14.58515625 13.12553711 -14.9203125 12.26669922 -15.265625 11.38183594 C-16 9 -16 9 -16 5 C-13.70967689 4.16280617 -11.41789043 3.3301071 -9.125 2.5 C-8.47402344 2.26152344 -7.82304687 2.02304688 -7.15234375 1.77734375 C-2.2265625 0 -2.2265625 0 0 0 Z " fill="#5C3C28" transform="translate(221,141)"/>
<path d="M0 0 C6.6772895 0.60702632 12.70127996 2.77631394 19 5 C17.62820257 10.0178906 14.5460541 12.31858553 10.5 15.25 C9.60861328 15.91902344 9.60861328 15.91902344 8.69921875 16.6015625 C4.41690668 19.79154666 4.41690668 19.79154666 2 21 C6.95 22.98 6.95 22.98 12 25 C11.67 26.65 11.34 28.3 11 30 C4.28460827 28.70024676 -1.72019113 26.70071112 -8 24 C-6.61951654 18.60444843 -3.26647586 16.62239723 1.125 13.6875 C1.78371094 13.23310547 2.44242187 12.77871094 3.12109375 12.31054688 C4.73994064 11.19612329 6.36899995 10.09656009 8 9 C3.545 7.02 3.545 7.02 -1 5 C-0.67 3.35 -0.34 1.7 0 0 Z " fill="#5B3C28" transform="translate(276,141)"/>
<path d="M0 0 C0 1.98 0 3.96 0 6 C-2.31 6 -4.62 6 -7 6 C-6.67 12.93 -6.34 19.86 -6 27 C-7.98 27 -9.96 27 -12 27 C-12.88021369 20.28837062 -13.11381955 13.76594019 -13 7 C-15.97 7 -18.94 7 -22 7 C-22 5.02 -22 3.04 -22 1 C-14.63959083 0.20274098 -7.40239645 -0.12886183 0 0 Z " fill="#5F402C" transform="translate(253,137)"/>
<path d="M0 0 C2.4375 1.5625 2.4375 1.5625 4 4 C4.56416593 7.9491615 4.65243688 10.0464384 2.375 13.375 C-0.58453553 15.39994536 -2.4051801 16 -6 16 C-9.77130118 13.98863937 -10.79172189 12.63640532 -12.125 8.5625 C-12 5 -12 5 -10 2.0625 C-6.28066838 -0.49454049 -4.42863214 -0.72468526 0 0 Z " fill="#F8F6F6" transform="translate(336,187)"/>
<path d="M0 0 C2.4375 1.5625 2.4375 1.5625 4 4 C4.72468526 8.42863214 4.49454049 10.28066838 1.9375 14 C-1 16 -1 16 -4.625 16 C-9.61768902 14.52068474 -9.61768902 14.52068474 -11 12 C-11.75471698 5.20754717 -11.75471698 5.20754717 -9.4375 1.5 C-6.05111671 -0.58392818 -3.90614682 -0.55802097 0 0 Z " fill="#F9F8F8" transform="translate(312,162)"/>
<path d="M0 0 C-1.75 4.875 -1.75 4.875 -4 6 C-4 6.99 -4 7.98 -4 9 C-1.07120629 8.37240135 1.36095629 7.41377341 4 6 C3.52 12.36 3.52 12.36 1.375 15 C-2.15894174 16.48797547 -4.34936217 16.04303938 -8 15 C-10.5 12.875 -10.5 12.875 -12 10 C-12 6.22089384 -11.83289714 3.99306967 -9.375 1.0625 C-6.16962495 -0.37148358 -3.46772635 -0.20006114 0 0 Z " fill="#F6F4F3" transform="translate(194,163)"/>
<path d="M0 0 C4.36731323 2.47536647 8.29121861 5.36985509 12.25 8.4375 C12.88679687 8.91509766 13.52359375 9.39269531 14.1796875 9.88476562 C14.78554687 10.35462891 15.39140625 10.82449219 16.015625 11.30859375 C16.56508789 11.72939209 17.11455078 12.15019043 17.68066406 12.58374023 C19.28966489 14.31094486 19.6066741 15.70161664 20 18 C18.02 18.99 18.02 18.99 16 20 C15.56655273 19.65219482 15.13310547 19.30438965 14.68652344 18.94604492 C12.70820341 17.35921233 10.72910923 15.77334815 8.75 14.1875 C8.06808594 13.64029297 7.38617188 13.09308594 6.68359375 12.52929688 C3.48995837 9.97128795 0.29844388 7.42282604 -3 5 C-1.125 1.125 -1.125 1.125 0 0 Z " fill="#5B3C28" transform="translate(164,178)"/>
<path d="M0 0 C1.1549921 0.73581742 2.29874185 1.48930039 3.4375 2.25 C4.07558594 2.66765625 4.71367187 3.0853125 5.37109375 3.515625 C7.34902347 5.31805496 7.63635854 6.37978893 8 9 C8.22580645 15.5483871 8.22580645 15.5483871 7 18 C3.37 18 -0.26 18 -4 18 C-2 14 -2 14 -1 13 C-0.76518307 10.81707226 -0.58636677 8.62796826 -0.4375 6.4375 C-0.35371094 5.23996094 -0.26992188 4.04242188 -0.18359375 2.80859375 C-0.12300781 1.88175781 -0.06242187 0.95492188 0 0 Z " fill="#E88E3B" transform="translate(272,283)"/>
<path d="M0 0 C1.43861294 0.08746284 2.87597508 0.19565348 4.3125 0.3125 C5.11300781 0.37050781 5.91351563 0.42851562 6.73828125 0.48828125 C9.39066259 1.08838825 10.36503879 1.85708967 12 4 C12 4.66 12 5.32 12 6 C12.63474075 7.34882408 13.29848848 8.6846659 14 10 C12.54077307 9.88590407 11.08259402 9.75834456 9.625 9.625 C8.81289062 9.55539063 8.00078125 9.48578125 7.1640625 9.4140625 C5 9 5 9 3 7 C0.41645782 6.83312552 0.41645782 6.83312552 -2 7 C-2 3.89448334 -1.4606285 2.64738916 0 0 Z " fill="#E9882F" transform="translate(206,222)"/>
<path d="M0 0 C0.99 0.66 1.98 1.32 3 2 C3 2.99 3 3.98 3 5 C3.99 5 4.98 5 6 5 C6 3.68 6 2.36 6 1 C6.66 1.33 7.32 1.66 8 2 C7.67 3.32 7.34 4.64 7 6 C6.34 6 5.68 6 5 6 C5 6.66 5 7.32 5 8 C6.98 8 8.96 8 11 8 C10.01 9.98 9.02 11.96 8 14 C6.02 14 4.04 14 2 14 C2 13.34 2 12.68 2 12 C1.01 12 0.02 12 -1 12 C-2.68236471 11.37400383 -4.3523962 10.71247732 -6 10 C-3.53721199 7.53721199 -1.29323018 7.00228745 2 6 C0.68 5.34 -0.64 4.68 -2 4 C-1.34 3.34 -0.68 2.68 0 2 C0 1.34 0 0.68 0 0 Z " fill="#B5A79E" transform="translate(196,213)"/>
<path d="M0 0 C7.94758065 1.76612903 7.94758065 1.76612903 10.8125 5.125 C11.204375 5.74375 11.59625 6.3625 12 7 C10.02 9.31 8.04 11.62 6 14 C4.35 13.67 2.7 13.34 1 13 C1 11.68 1 10.36 1 9 C0.34 8.34 -0.32 7.68 -1 7 C0.32 7 1.64 7 3 7 C2.42547254 3.06924356 2.42547254 3.06924356 0 0 Z " fill="#EEEAE8" transform="translate(202,206)"/>
<path d="M0 0 C0.33 0.66 0.66 1.32 1 2 C-0.98 2.99 -0.98 2.99 -3 4 C-0.03 4.33 2.94 4.66 6 5 C5.34 5.66 4.68 6.32 4 7 C4.66 7.66 5.32 8.32 6 9 C5.01 9 4.02 9 3 9 C2.67 9.66 2.34 10.32 2 11 C2 10.34 2 9.68 2 9 C-1.58306382 9.42153551 -1.58306382 9.42153551 -4.4375 11.4375 C-6.6382973 13.6382973 -9.05488952 14.1491903 -12 15 C-10.25 10.125 -10.25 10.125 -8 9 C-7.28166626 7.14126234 -7.28166626 7.14126234 -6.6875 5 C-5.9296875 2.8125 -5.9296875 2.8125 -5 1 C-2.3125 0 -2.3125 0 0 0 Z " fill="#C17028" transform="translate(239,214)"/>
<path d="M0 0 C0.33 0.66 0.66 1.32 1 2 C0.0625 4.125 0.0625 4.125 -1 6 C-1.66 6 -2.32 6 -3 6 C-2.938125 6.886875 -2.87625 7.77375 -2.8125 8.6875 C-3.0235879 12.4167196 -3.92068809 13.96100567 -6 17 C-6.68096422 18.32608822 -7.35330586 19.65686601 -8 21 C-8.33 21 -8.66 21 -9 21 C-9.10832169 18.91781638 -9.18573541 16.83400871 -9.25 14.75 C-9.29640625 13.58984375 -9.3428125 12.4296875 -9.390625 11.234375 C-9 8 -9 8 -7.171875 5.640625 C-5 4 -5 4 -2 3 C-1.34 2.01 -0.68 1.02 0 0 Z " fill="#E9872C" transform="translate(232,211)"/>
<path d="M0 0 C1.98260599 0.42164019 3.96107245 0.86278778 5.9375 1.3125 C7.03964844 1.55613281 8.14179688 1.79976562 9.27734375 2.05078125 C10.62505859 2.52064453 10.62505859 2.52064453 12 3 C12.33 3.99 12.66 4.98 13 6 C12.360625 6.28875 11.72125 6.5775 11.0625 6.875 C8.84793921 7.82823451 8.84793921 7.82823451 8 10 C7.01 10 6.02 10 5 10 C4.67 10.66 4.34 11.32 4 12 C4 11.01 4 10.02 4 9 C3.34 9 2.68 9 2 9 C1.67 7.68 1.34 6.36 1 5 C1.66 4.67 2.32 4.34 3 4 C3.66 4.33 4.32 4.66 5 5 C5 4.34 5 3.68 5 3 C3.35 2.67 1.7 2.34 0 2 C0 1.34 0 0.68 0 0 Z " fill="#CDC4BD" transform="translate(187,225)"/>
<path d="M0 0 C2.5 0.125 2.5 0.125 3.5 1.125 C3.97058824 6.53676471 3.97058824 6.53676471 2 9 C1.2575 9.556875 1.2575 9.556875 0.5 10.125 C-1.48 9.135 -3.46 8.145 -5.5 7.125 C-3.27837838 0.16391892 -3.27837838 0.16391892 0 0 Z " fill="#F5F3F2" transform="translate(157.5,200.875)"/>
<path d="M0 0 C0 2.64 0 5.28 0 8 C-3.63 8 -7.26 8 -11 8 C-8.77601032 3.55202064 -5.46637866 0 0 0 Z " fill="#FEFAF7" transform="translate(279,293)"/>
<path d="M0 0 C4.875 0.875 4.875 0.875 6 2 C6.125 4.5 6.125 4.5 6 7 C5 8 5 8 2.0625 8.125 C-1 8 -1 8 -3 7 C-1.125 2.25 -1.125 2.25 0 0 Z " fill="#7B6252" transform="translate(199,336)"/>
<path d="M0 0 C0.99 0.33 1.98 0.66 3 1 C4.04111729 3.94519277 4.43536684 6.91623428 5 10 C1.7 9.34 -1.6 8.68 -5 8 C-3.47524303 4.95048605 -2.07114674 2.63600494 0 0 Z " fill="#CB772C" transform="translate(213,213)"/>
<path d="M0 0 C4.72077497 4.72077497 7.66382396 11.96433036 8.390625 18.52734375 C8.37707507 21.37621676 8.27581103 24.1652755 8 27 C5.45684751 24.45684751 5.78154231 23.45666209 5.6875 19.9375 C5.32600433 14.65410174 3.88626415 11.2070937 1.05859375 6.77734375 C0 5 0 5 0 3 C-0.66 3 -1.32 3 -2 3 C-1 1 -1 1 0 0 Z " fill="#684C39" transform="translate(305,250)"/>
<path d="M0 0 C0.67012098 6.19861907 -1.75052827 11.35623611 -4 17 C-4.33 17 -4.66 17 -5 17 C-6.11691749 13.65597595 -6.93326019 10.53721004 -7 7 C-5.74800806 4.61744678 -3.06970483 0 0 0 Z " fill="#ECE6E1" transform="translate(293,279)"/>
<path d="M0 0 C0.66 0.33 1.32 0.66 2 1 C0.34761732 5.17029915 -0.84080746 7.84080746 -4 11 C-4 12.32 -4 13.64 -4 15 C-4.6252708 17.34476551 -5.2863409 19.68060793 -6 22 C-6.33 22 -6.66 22 -7 22 C-7 20.35 -7 18.7 -7 17 C-7.66 16.67 -8.32 16.34 -9 16 C-8.73445312 15.50371094 -8.46890625 15.00742188 -8.1953125 14.49609375 C-5.88379288 10.05021478 -4.21524919 5.86099676 -3 1 C-2.34 1.33 -1.68 1.66 -1 2 C-0.67 1.34 -0.34 0.68 0 0 Z " fill="#714320" transform="translate(232,216)"/>
<path d="M0 0 C4 4.22222222 4 4.22222222 4 7 C2.54077307 6.88590407 1.08259402 6.75834456 -0.375 6.625 C-1.59316406 6.52058594 -1.59316406 6.52058594 -2.8359375 6.4140625 C-5 6 -5 6 -7 4 C-6.67 3.01 -6.34 2.02 -6 1 C-4 0 -4 0 0 0 Z " fill="#CB7629" transform="translate(216,225)"/>
<path d="M0 0 C0.33 1.98 0.66 3.96 1 6 C-0.65 5.67 -2.3 5.34 -4 5 C-4.33 5.99 -4.66 6.98 -5 8 C-6.25664978 5.09399739 -7 3.20395416 -7 0 C-4.3333581 -1.33332095 -2.83319697 -0.67102033 0 0 Z " fill="#947F72" transform="translate(291,343)"/>
<path d="M0 0 C3.34252724 -0.07427838 5.8035914 -0.06546953 9 1 C10.051875 1.2475 10.051875 1.2475 11.125 1.5 C13 2 13 2 14 3 C16.32817964 3.36760731 18.6618385 3.70241581 21 4 C21 4.66 21 5.32 21 6 C15.72 5.67 10.44 5.34 5 5 C5 4.01 5 3.02 5 2 C3.35 1.67 1.7 1.34 0 1 C0 0.67 0 0.34 0 0 Z " fill="#7F4F29" transform="translate(197,227)"/>
<path d="M0 0 C0.33 0.66 0.66 1.32 1 2 C1.66 2.33 2.32 2.66 3 3 C2.57847656 3.4125 2.15695313 3.825 1.72265625 4.25 C-2.59202022 8.79817661 -3.7803167 11.73902584 -4 18 C-4.33 17.01 -4.66 16.02 -5 15 C-5.66 14.67 -6.32 14.34 -7 14 C-6.690625 13.29875 -6.38125 12.5975 -6.0625 11.875 C-4.96697322 8.91063343 -4.43577008 6.12301892 -4 3 C-3.67 3.99 -3.34 4.98 -3 6 C-2.34 5.67 -1.68 5.34 -1 5 C-0.34444881 2.47266765 -0.34444881 2.47266765 0 0 Z " fill="#8A5123" transform="translate(227,209)"/>
<path d="M0 0 C3.875 1.75 3.875 1.75 5 4 C5.66 3.01 6.32 2.02 7 1 C7 3.31 7 5.62 7 8 C6.01 7.67 5.02 7.34 4 7 C3.67 6.34 3.34 5.68 3 5 C2.67 5.99 2.34 6.98 2 8 C1.34 8 0.68 8 0 8 C0 5.36 0 2.72 0 0 Z " fill="#795F4F" transform="translate(240,349)"/>
<path d="M0 0 C1.4540625 0.0309375 1.4540625 0.0309375 2.9375 0.0625 C1.9475 2.0425 0.9575 4.0225 -0.0625 6.0625 C-2.0425 6.0625 -4.0225 6.0625 -6.0625 6.0625 C-3.76028481 0.07674051 -3.76028481 0.07674051 0 0 Z " fill="#DCD3CC" transform="translate(204.0625,220.9375)"/>
<path d="M0 0 C0.66 0.66 1.32 1.32 2 2 C1.34 4.31 0.68 6.62 0 9 C-0.33 8.01 -0.66 7.02 -1 6 C-3.97 5.505 -3.97 5.505 -7 5 C-4.87219421 2.65941363 -2.88437779 1.29299694 0 0 Z " fill="#877061" transform="translate(189,328)"/>
<path d="M0 0 C1.6396875 0.2475 1.6396875 0.2475 3.3125 0.5 C6.87525873 1.06718184 6.87525873 1.06718184 10 1 C10.66 1.66 11.32 2.32 12 3 C9.31920844 4.75282525 8.13111361 5.01311136 4.875 4.6875 C2 4 2 4 0 3 C0 2.01 0 1.02 0 0 Z " fill="#F6F5F4" transform="translate(189,223)"/>
<path d="M0 0 C1.2065625 0.0309375 1.2065625 0.0309375 2.4375 0.0625 C2.7675 0.7225 3.0975 1.3825 3.4375 2.0625 C2.1175 2.3925 0.7975 2.7225 -0.5625 3.0625 C0.0975 3.7225 0.7575 4.3825 1.4375 5.0625 C0.1175 5.0625 -1.2025 5.0625 -2.5625 5.0625 C-2.5625 5.7225 -2.5625 6.3825 -2.5625 7.0625 C-1.2425 7.0625 0.0775 7.0625 1.4375 7.0625 C1.4375 7.7225 1.4375 8.3825 1.4375 9.0625 C-0.2125 8.7325 -1.8625 8.4025 -3.5625 8.0625 C-3.60491723 5.72955225 -3.60342937 3.39547433 -3.5625 1.0625 C-2.5625 0.0625 -2.5625 0.0625 0 0 Z " fill="#7D6454" transform="translate(229.5625,346.9375)"/>
<path d="M0 0 C1 3 1 3 0 6 C-0.66 6 -1.32 6 -2 6 C-2 7.65 -2 9.3 -2 11 C-2.99 11.33 -3.98 11.66 -5 12 C-5.93065133 9.39417629 -6.14917407 8.35801776 -5.0625 5.75 C-4.5365625 4.88375 -4.5365625 4.88375 -4 4 C-3.01 4.33 -2.02 4.66 -1 5 C-0.67 3.35 -0.34 1.7 0 0 Z " fill="#DC7F2B" transform="translate(229,203)"/>
<path d="M0 0 C1.2065625 0.2475 1.2065625 0.2475 2.4375 0.5 C4.97658116 1.26597109 4.97658116 1.26597109 7 0 C7.33 2.97 7.66 5.94 8 9 C5.03 8.505 5.03 8.505 2 8 C3.32 7.67 4.64 7.34 6 7 C3.74259377 4.66475218 1.7194239 2.81294927 -1 1 C-0.67 0.67 -0.34 0.34 0 0 Z " fill="#998579" transform="translate(205,200)"/>
<path d="M0 0 C0.99 0.33 1.98 0.66 3 1 C2.01 4.3 1.02 7.6 0 11 C-0.66 10.67 -1.32 10.34 -2 10 C-2 9.34 -2 8.68 -2 8 C-2.66 7.67 -3.32 7.34 -4 7 C-3.34 7 -2.68 7 -2 7 C-2 5.68 -2 4.36 -2 3 C-1.34 3 -0.68 3 0 3 C0 2.01 0 1.02 0 0 Z " fill="#EAE1DA" transform="translate(200,228)"/>
<path d="M0 0 C0.66 0.33 1.32 0.66 2 1 C1.01 2.485 1.01 2.485 0 4 C1.65 3.67 3.3 3.34 5 3 C5 4.32 5 5.64 5 7 C3.02 7.99 3.02 7.99 1 9 C1 8.34 1 7.68 1 7 C1.66 6.67 2.32 6.34 3 6 C1.35 5.67 -0.3 5.34 -2 5 C-1.125 1.125 -1.125 1.125 0 0 Z " fill="#7A6050" transform="translate(311,327)"/>
<path d="M0 0 C3.22737959 0.94380512 4.69153541 1.53539901 6.58203125 4.3828125 C6.98808594 5.28773438 7.39414063 6.19265625 7.8125 7.125 C8.23144531 8.03507813 8.65039062 8.94515625 9.08203125 9.8828125 C9.38496094 10.58148438 9.68789062 11.28015625 10 12 C9.01 12.33 8.02 12.66 7 13 C6.773125 11.96875 6.54625 10.9375 6.3125 9.875 C5.13528144 5.65591742 2.95161029 3.18463216 0 0 Z " fill="#764D2E" transform="translate(210,208)"/>
<path d="M0 0 C2.28459758 2.28459758 2.97129748 4.12537344 4.125 7.125 C4.47820312 8.03507812 4.83140625 8.94515625 5.1953125 9.8828125 C5.46085937 10.58148438 5.72640625 11.28015625 6 12 C5.01 12.495 5.01 12.495 4 13 C3.32845067 11.71086513 2.66291141 10.41859796 2 9.125 C1.62875 8.40570313 1.2575 7.68640625 0.875 6.9453125 C0 5 0 5 0 3 C-0.66 3 -1.32 3 -2 3 C-1 1 -1 1 0 0 Z " fill="#7D6555" transform="translate(305,250)"/>
<path d="M0 0 C3.90381822 3.90381822 3.56244183 5.66179036 4 11 C3.01 11 2.02 11 1 11 C0.67 7.37 0.34 3.74 0 0 Z " fill="#D6AF8C" transform="translate(226,291)"/>
<path d="M0 0 C2.31 0 4.62 0 7 0 C6.01 0.495 6.01 0.495 5 1 C5 3.31 5 5.62 5 8 C4.34 8 3.68 8 3 8 C3 6.02 3 4.04 3 2 C2.01 2 1.02 2 0 2 C0 1.34 0 0.68 0 0 Z " fill="#897263" transform="translate(255,349)"/>
<path d="M0 0 C2.125 0.9375 2.125 0.9375 4 2 C2.75 3.5 2.75 3.5 1 5 C-0.32 5 -1.64 5 -3 5 C-2.625 3.0625 -2.625 3.0625 -2 1 C-1.34 0.67 -0.68 0.34 0 0 Z " fill="#FCFCFC" transform="translate(206,213)"/>
<path d="M0 0 C1.25541557 3.76624671 0.37061958 5.37188934 -1 9 C-1.99 9 -2.98 9 -4 9 C-3.71848913 7.68528432 -3.42446661 6.37324233 -3.125 5.0625 C-2.96257812 4.33160156 -2.80015625 3.60070312 -2.6328125 2.84765625 C-2 1 -2 1 0 0 Z " fill="#5D3E2A" transform="translate(293,286)"/>
<path d="M0 0 C0.33 0.99 0.66 1.98 1 3 C1.99 3.33 2.98 3.66 4 4 C3.34 5.98 2.68 7.96 2 10 C0.04224922 7.06337384 -0.56073149 5.4262944 -1 2 C-0.67 1.34 -0.34 0.68 0 0 Z " fill="#DD802B" transform="translate(219,213)"/>
<path d="M0 0 C0.66 0 1.32 0 2 0 C2.144375 0.94875 2.28875 1.8975 2.4375 2.875 C2.82935399 5.8934494 2.82935399 5.8934494 4 8 C2.68 8.33 1.36 8.66 0 9 C0 6.03 0 3.06 0 0 Z " fill="#8C7668" transform="translate(212,342)"/>
<path d="M0 0 C0.99 0.33 1.98 0.66 3 1 C3 2.65 3 4.3 3 6 C1.35 5.67 -0.3 5.34 -2 5 C-1.34 3.35 -0.68 1.7 0 0 Z " fill="#F5F3F2" transform="translate(200,337)"/>
<path d="M0 0 C1.9451 2.91765 2.45276317 4.62537285 3 8 C2.34 8 1.68 8 1 8 C0.67 8.66 0.34 9.32 0 10 C-1.125 2.25 -1.125 2.25 0 0 Z " fill="#694C3A" transform="translate(310,289)"/>
<path d="M0 0 C0.99 0.33 1.98 0.66 3 1 C3.33 2.65 3.66 4.3 4 6 C1.525 5.01 1.525 5.01 -1 4 C-0.67 2.68 -0.34 1.36 0 0 Z " fill="#EE8F36" transform="translate(213,213)"/>
<path d="M0 0 C0.33 0 0.66 0 1 0 C1 3.3 1 6.6 1 10 C-1.63636364 4.72727273 -1.63636364 4.72727273 -2 2 C-1.34 1.34 -0.68 0.68 0 0 Z " fill="#ECE7E3" transform="translate(220,292)"/>
<path d="M0 0 C0 0.66 0 1.32 0 2 C-1.65 2.66 -3.3 3.32 -5 4 C-5.33 2.68 -5.66 1.36 -6 0 C-3 -1 -3 -1 0 0 Z " fill="#CBC1BA" transform="translate(200,229)"/>
<path d="M0 0 C1.98 0 3.96 0 6 0 C6 0.99 6 1.98 6 3 C4.02 3 2.04 3 0 3 C0 2.01 0 1.02 0 0 Z " fill="#D5CDC8" transform="translate(191,221)"/>
<path d="M0 0 C6.15234375 0.5859375 6.15234375 0.5859375 8 1 C8.33 1.66 8.66 2.32 9 3 C5.625 3.1875 5.625 3.1875 2 3 C1.34 2.01 0.68 1.02 0 0 Z " fill="#E1DBD7" transform="translate(190,217)"/>
<path d="M0 0 C0.66 0.99 1.32 1.98 2 3 C0.35 4.32 -1.3 5.64 -3 7 C-4.32 6.34 -5.64 5.68 -7 5 C-5.5459375 4.5978125 -5.5459375 4.5978125 -4.0625 4.1875 C-3.051875 3.795625 -2.04125 3.40375 -1 3 C-0.67 2.01 -0.34 1.02 0 0 Z " fill="#D8CCC3" transform="translate(210,213)"/>
</svg>
